<svg width="24" height="24" viewBox="0 0 24 24" fill="none" xmlns="http://www.w3.org/2000/svg">
<path d="M7.55504 14.0371C7.59431 14.0061 7.67999 14.0162 7.73354 14.0189L7.92989 13.9824C7.90937 14.0253 7.83082 14.028 7.78709 14.0371C7.74336 14.0462 7.70677 14.0453 7.66214 14.0554C6.47599 14.3152 4.8784 14.9196 4.35717 16.1404C3.74669 17.5681 4.88822 18.9639 5.87712 19.8455C7.41135 21.213 9.04286 21.5704 10.4361 19.7799C11.1777 18.8262 11.6115 17.6264 11.9819 16.4814H12.0346C12.6986 18.6384 14.1427 22.0682 16.9559 20.6779C17.9483 20.1874 19.2907 18.8837 19.67 17.8161C20.4697 15.5697 18.1036 14.4219 16.3543 14.0554C16.3132 14.0462 16.2731 14.0307 16.2294 14.0371L16.1044 14.0007L16.2829 14.0189C16.3365 14.0162 16.4221 14.0061 16.4614 14.0371C16.9344 14.0399 17.3852 14.0754 17.86 14.0162C19.7851 13.7791 21.2328 12.6195 21.5451 10.6147C21.6442 9.98194 21.7022 9.30638 21.762 8.66637C21.8611 7.60699 21.9503 6.51844 21.9932 5.45632C22.0566 3.96115 21.7013 2.68387 19.9252 3.06952C18.1001 3.4661 16.3043 5.33598 15.1325 6.74362C13.9338 8.18318 12.8735 9.75675 12.0087 11.4297C11.3241 10.0923 10.5048 8.82865 9.59711 7.6389C8.32349 5.97051 6.19128 3.51989 4.0921 3.06952C2.43203 2.71305 1.95899 3.83534 2.00273 5.31318C2.02861 6.20937 2.12232 7.16938 2.19997 8.06557C2.25799 8.73201 2.31689 9.40575 2.39811 10.0695C2.56322 11.4178 2.90595 12.4563 4.05015 13.2503C5.15865 14.0198 6.26001 14.0617 7.55415 14.038L7.55504 14.0371Z" fill="#973BFF" stroke="#973BFF" stroke-linejoin="round"/>
</svg>
