<svg width="40" height="40" viewBox="0 0 40 40" fill="none" xmlns="http://www.w3.org/2000/svg">
<path d="M12.5918 23.3952C12.6572 23.3436 12.8 23.3603 12.8893 23.3648L13.2165 23.304C13.1823 23.3755 13.0514 23.38 12.9785 23.3952C12.9056 23.4104 12.8446 23.4089 12.7703 23.4256C10.7933 23.8587 8.13068 24.8661 7.26197 26.9007C6.24451 29.2802 8.14705 31.6065 9.79522 33.0758C12.3523 35.355 15.0714 35.9507 17.3935 32.9664C18.6296 31.3771 19.3525 29.3774 19.9698 27.4689H20.0576C21.1643 31.064 23.5711 36.7803 28.2598 34.4631C29.9139 33.6456 32.1511 31.4728 32.7833 29.6935C34.1161 25.9495 30.1727 24.0364 27.2572 23.4256C27.1888 23.4104 27.1218 23.3846 27.0489 23.3952L26.8407 23.3344L27.1382 23.3648C27.2274 23.3603 27.3702 23.3436 27.4357 23.3952C28.2241 23.3998 28.9753 23.459 29.7666 23.3603C32.9752 22.9652 35.388 21.0324 35.9086 17.6911C36.0737 16.6366 36.1704 15.5106 36.2701 14.444C36.4352 12.6783 36.5839 10.8641 36.6553 9.09386C36.761 6.60192 36.1689 4.47312 33.2088 5.11586C30.1668 5.77684 27.1739 8.89329 25.2208 11.2394C23.223 13.6386 21.4559 16.2613 20.0145 19.0495C18.8735 16.8204 17.508 14.7144 15.9952 12.7315C13.8725 9.95085 10.3188 5.86649 6.82018 5.11586C4.0534 4.52175 3.26501 6.39223 3.3379 8.85531C3.38103 10.349 3.53723 11.949 3.66664 13.4426C3.76333 14.5534 3.8615 15.6763 3.99687 16.7824C4.27206 19.0297 4.84327 20.7604 6.75027 22.0839C8.59777 23.3663 10.4334 23.4362 12.5903 23.3967L12.5918 23.3952Z" fill="white" stroke="white" stroke-linejoin="round"/>
</svg>
