<svg width="40" height="40" viewBox="0 0 40 40" fill="none" xmlns="http://www.w3.org/2000/svg">
<g clip-path="url(#clip0_13_784)">
<path d="M33.3333 6.66669H6.66665C4.8257 6.66669 3.33331 8.15907 3.33331 10V30C3.33331 31.841 4.8257 33.3334 6.66665 33.3334H33.3333C35.1743 33.3334 36.6666 31.841 36.6666 30V10C36.6666 8.15907 35.1743 6.66669 33.3333 6.66669Z" fill="white"/>
<path d="M36.6666 11.6667L21.7166 21.1667C21.2021 21.4891 20.6072 21.66 20 21.66C19.3928 21.66 18.7979 21.4891 18.2833 21.1667L3.33331 11.6667" fill="white"/>
<path d="M36.6666 11.6667L21.7166 21.1667C21.2021 21.4891 20.6072 21.66 20 21.66C19.3928 21.66 18.7979 21.4891 18.2833 21.1667L3.33331 11.6667" fill="white"/>
<path d="M36.6666 11.6667L21.7166 21.1667C21.2021 21.4891 20.6072 21.66 20 21.66C19.3928 21.66 18.7979 21.4891 18.2833 21.1667L3.33331 11.6667" fill="white"/>
<path d="M36.6666 11.6667L21.7166 21.1667C21.2021 21.4891 20.6072 21.66 20 21.66C19.3928 21.66 18.7979 21.4891 18.2833 21.1667L3.33331 11.6667M36.6666 11.6667L21.7166 21.1667C21.2021 21.4891 20.6072 21.66 20 21.66C19.3928 21.66 18.7979 21.4891 18.2833 21.1667L3.33331 11.6667M36.6666 11.6667L21.7166 21.1667C21.2021 21.4891 20.6072 21.66 20 21.66C19.3928 21.66 18.7979 21.4891 18.2833 21.1667L3.33331 11.6667M6.66665 6.66669H33.3333C35.1743 6.66669 36.6666 8.15907 36.6666 10V30C36.6666 31.841 35.1743 33.3334 33.3333 33.3334H6.66665C4.8257 33.3334 3.33331 31.841 3.33331 30V10C3.33331 8.15907 4.8257 6.66669 6.66665 6.66669Z" stroke="white" stroke-linecap="round" stroke-linejoin="round"/>
<path d="M39.1667 11.6667L21.7167 22.8333C21.2021 23.1557 20.6072 23.3267 20 23.3267C19.3928 23.3267 18.7979 23.1557 18.2833 22.8333L0.833313 11.6667" stroke="#973BFF" stroke-width="3" stroke-linecap="round" stroke-linejoin="round"/>
</g>
<defs>
<clipPath id="clip0_13_784">
<rect width="40" height="40" fill="white"/>
</clipPath>
</defs>
</svg>
