<svg width="40" height="40" viewBox="0 0 40 40" fill="none" xmlns="http://www.w3.org/2000/svg">
<path d="M25 36.6666V30C25.2318 27.9121 24.6332 25.8169 23.3333 24.1666C28.3333 24.1666 33.3333 20.8333 33.3333 15C33.4666 12.9166 32.8833 10.8666 31.6666 9.16665C32.1333 7.24998 32.1333 5.24998 31.6666 3.33331C31.6666 3.33331 30 3.33331 26.6666 5.83331C22.2666 4.99998 17.7333 4.99998 13.3333 5.83331C9.99998 3.33331 8.33331 3.33331 8.33331 3.33331C7.83331 5.24998 7.83331 7.24998 8.33331 9.16665C7.11977 10.8598 6.53077 12.9213 6.66665 15C6.66665 20.8333 11.6666 24.1666 16.6666 24.1666C16.0166 24.9833 15.5333 25.9166 15.25 26.9166C14.9666 27.9166 14.8833 28.9666 15 30M15 30V36.6666M15 30C7.48331 33.3333 6.66665 26.6666 3.33331 26.6666" stroke="white" stroke-linecap="round" stroke-linejoin="round"/>
<path d="M25 36.6666V30C25.2318 27.9121 24.6332 25.8169 23.3333 24.1666C28.3333 24.1666 33.3333 20.8333 33.3333 15C33.4667 12.9166 32.8833 10.8666 31.6666 9.16665C32.1333 7.24998 32.1333 5.24998 31.6666 3.33331C31.6666 3.33331 30 3.33331 26.6666 5.83331C22.2666 4.99998 17.7333 4.99998 13.3333 5.83331C9.99998 3.33331 8.33331 3.33331 8.33331 3.33331C7.83331 5.24998 7.83331 7.24998 8.33331 9.16665C7.11977 10.8598 6.53077 12.9213 6.66665 15C6.66665 20.8333 11.6666 24.1666 16.6666 24.1666C16.0166 24.9833 15.5333 25.9166 15.25 26.9166C14.9666 27.9166 14.8833 28.9666 15 30V36.6666" fill="white"/>
<path d="M25 36.6666V30C25.2318 27.9121 24.6332 25.8169 23.3333 24.1666C28.3333 24.1666 33.3333 20.8333 33.3333 15C33.4667 12.9166 32.8833 10.8666 31.6666 9.16665C32.1333 7.24998 32.1333 5.24998 31.6666 3.33331C31.6666 3.33331 30 3.33331 26.6666 5.83331C22.2666 4.99998 17.7333 4.99998 13.3333 5.83331C9.99998 3.33331 8.33331 3.33331 8.33331 3.33331C7.83331 5.24998 7.83331 7.24998 8.33331 9.16665C7.11977 10.8598 6.53077 12.9213 6.66665 15C6.66665 20.8333 11.6666 24.1666 16.6666 24.1666C16.0166 24.9833 15.5333 25.9166 15.25 26.9166C14.9666 27.9166 14.8833 28.9666 15 30V36.6666" stroke="white" stroke-linecap="round" stroke-linejoin="round"/>
</svg>
