<svg width="40" height="40" viewBox="0 0 40 40" fill="none" xmlns="http://www.w3.org/2000/svg">
<path d="M28.8666 8.33331H11.1333C9.48378 8.3337 7.89296 8.94561 6.66837 10.0508C5.44378 11.1559 4.67239 12.6758 4.50331 14.3166C4.49331 14.4033 4.48665 14.485 4.47498 14.57C4.33998 15.6933 3.33331 24.0933 3.33331 26.6666C3.33331 27.9927 3.8601 29.2645 4.79778 30.2022C5.73546 31.1399 7.00723 31.6666 8.33331 31.6666C9.99998 31.6666 10.8333 30.8333 11.6666 30L14.0233 27.6433C14.6483 27.0182 15.496 26.6668 16.38 26.6666H23.62C24.504 26.6668 25.3517 27.0182 25.9766 27.6433L28.3333 30C29.1666 30.8333 30 31.6666 31.6666 31.6666C32.9927 31.6666 34.2645 31.1399 35.2022 30.2022C36.1399 29.2645 36.6666 27.9927 36.6666 26.6666C36.6666 24.0916 35.66 15.6933 35.525 14.57C35.5133 14.4866 35.5066 14.4033 35.4966 14.3183C35.328 12.6772 34.5567 11.1569 33.3321 10.0514C32.1075 8.94588 30.5164 8.33374 28.8666 8.33331Z" fill="white"/>
<path d="M9.99998 18.3333H16.6666M13.3333 15V21.6666M25 20H25.0166M30 16.6666H30.0166M28.8666 8.33331H11.1333C9.48378 8.3337 7.89296 8.94561 6.66837 10.0508C5.44378 11.1559 4.67239 12.6758 4.50331 14.3166C4.49331 14.4033 4.48665 14.485 4.47498 14.57C4.33998 15.6933 3.33331 24.0933 3.33331 26.6666C3.33331 27.9927 3.8601 29.2645 4.79778 30.2022C5.73546 31.1399 7.00723 31.6666 8.33331 31.6666C9.99998 31.6666 10.8333 30.8333 11.6666 30L14.0233 27.6433C14.6483 27.0182 15.496 26.6668 16.38 26.6666H23.62C24.504 26.6668 25.3517 27.0182 25.9766 27.6433L28.3333 30C29.1666 30.8333 30 31.6666 31.6666 31.6666C32.9927 31.6666 34.2645 31.1399 35.2022 30.2022C36.1399 29.2645 36.6666 27.9927 36.6666 26.6666C36.6666 24.0916 35.66 15.6933 35.525 14.57C35.5133 14.4866 35.5066 14.4033 35.4966 14.3183C35.328 12.6772 34.5567 11.1569 33.3321 10.0514C32.1075 8.94588 30.5164 8.33374 28.8666 8.33331Z" stroke="white" stroke-linecap="round" stroke-linejoin="round"/>
<path d="M10 18.3333H16.6667M13.3333 15V21.6667M25 20H25.0167M30 16.6667H30.0167" stroke="#973BFF" stroke-width="3" stroke-linecap="round" stroke-linejoin="round"/>
</svg>
