<svg width="40" height="40" viewBox="0 0 40 40" fill="none" xmlns="http://www.w3.org/2000/svg">
<path d="M20 36.6666C29.2047 36.6666 36.6666 29.2047 36.6666 20C36.6666 10.7952 29.2047 3.33331 20 3.33331C10.7952 3.33331 3.33331 10.7952 3.33331 20C3.33331 29.2047 10.7952 36.6666 20 36.6666Z" fill="white"/>
<path d="M20 3.33331C15.7204 7.8269 13.3333 13.7945 13.3333 20C13.3333 26.2054 15.7204 32.1731 20 36.6666C24.2796 32.1731 26.6666 26.2054 26.6666 20C26.6666 13.7945 24.2796 7.8269 20 3.33331Z" fill="white"/>
<path d="M3.33331 20H36.6666H3.33331Z" fill="white"/>
<path d="M36.6666 20C36.6666 29.2047 29.2047 36.6666 20 36.6666M36.6666 20C36.6666 10.7952 29.2047 3.33331 20 3.33331M36.6666 20H3.33331M20 36.6666C10.7952 36.6666 3.33331 29.2047 3.33331 20M20 36.6666C15.7204 32.1731 13.3333 26.2054 13.3333 20C13.3333 13.7945 15.7204 7.8269 20 3.33331M20 36.6666C24.2796 32.1731 26.6666 26.2054 26.6666 20C26.6666 13.7945 24.2796 7.8269 20 3.33331M3.33331 20C3.33331 10.7952 10.7952 3.33331 20 3.33331" stroke="white" stroke-linecap="round" stroke-linejoin="round"/>
<path d="M36.6666 20H20H3.33331M20 36.6666C15.7204 32.1731 13.3333 26.2054 13.3333 20C13.3333 13.7945 15.7204 7.8269 20 3.33331C24.2796 7.8269 26.6666 13.7945 26.6666 20C26.6666 26.2054 24.2796 32.1731 20 36.6666Z" stroke="#973BFF" stroke-width="3" stroke-linecap="round" stroke-linejoin="round"/>
</svg>
