<svg width="24" height="24" viewBox="0 0 24 24" fill="none" xmlns="http://www.w3.org/2000/svg">
<g clip-path="url(#clip0_17_865)">
<path d="M20 4H4C2.89543 4 2 4.89543 2 6V18C2 19.1046 2.89543 20 4 20H20C21.1046 20 22 19.1046 22 18V6C22 4.89543 21.1046 4 20 4Z" fill="#973BFF"/>
<path d="M22 7L13.03 12.7C12.7213 12.8934 12.3643 12.996 12 12.996C11.6357 12.996 11.2787 12.8934 10.97 12.7L2 7" fill="#973BFF"/>
<path d="M22 7L13.03 12.7C12.7213 12.8934 12.3643 12.996 12 12.996C11.6357 12.996 11.2787 12.8934 10.97 12.7L2 7" fill="#973BFF"/>
<path d="M22 7L13.03 12.7C12.7213 12.8934 12.3643 12.996 12 12.996C11.6357 12.996 11.2787 12.8934 10.97 12.7L2 7" fill="#973BFF"/>
<path d="M22 7L13.03 12.7C12.7213 12.8934 12.3643 12.996 12 12.996C11.6357 12.996 11.2787 12.8934 10.97 12.7L2 7M22 7L13.03 12.7C12.7213 12.8934 12.3643 12.996 12 12.996C11.6357 12.996 11.2787 12.8934 10.97 12.7L2 7M22 7L13.03 12.7C12.7213 12.8934 12.3643 12.996 12 12.996C11.6357 12.996 11.2787 12.8934 10.97 12.7L2 7M4 4H20C21.1046 4 22 4.89543 22 6V18C22 19.1046 21.1046 20 20 20H4C2.89543 20 2 19.1046 2 18V6C2 4.89543 2.89543 4 4 4Z" stroke="#973BFF" stroke-linecap="round" stroke-linejoin="round"/>
<path d="M23.5 7L13.03 13.7C12.7213 13.8934 12.3643 13.996 12 13.996C11.6357 13.996 11.2787 13.8934 10.97 13.7L0.5 7" stroke="#17171A" stroke-width="2" stroke-linecap="round" stroke-linejoin="round"/>
</g>
<defs>
<clipPath id="clip0_17_865">
<rect width="24" height="24" fill="white"/>
</clipPath>
</defs>
</svg>
