<svg width="40" height="40" viewBox="0 0 40 40" fill="none" xmlns="http://www.w3.org/2000/svg">
<path d="M26.6666 13.3333C29.3188 13.3333 31.8624 14.3869 33.7377 16.2622C35.6131 18.1376 36.6666 20.6811 36.6666 23.3333V35H30V23.3333C30 22.4493 29.6488 21.6014 29.0237 20.9763C28.3985 20.3512 27.5507 20 26.6666 20C25.7826 20 24.9347 20.3512 24.3096 20.9763C23.6845 21.6014 23.3333 22.4493 23.3333 23.3333V35H16.6666V23.3333C16.6666 20.6811 17.7202 18.1376 19.5956 16.2622C21.4709 14.3869 24.0145 13.3333 26.6666 13.3333Z" fill="white"/>
<path d="M9.99998 15H3.33331V35H9.99998V15Z" fill="white"/>
<path d="M6.66665 9.99998C8.5076 9.99998 9.99998 8.5076 9.99998 6.66665C9.99998 4.8257 8.5076 3.33331 6.66665 3.33331C4.8257 3.33331 3.33331 4.8257 3.33331 6.66665C3.33331 8.5076 4.8257 9.99998 6.66665 9.99998Z" fill="white"/>
<path d="M26.6666 13.3333C29.3188 13.3333 31.8624 14.3869 33.7377 16.2622C35.6131 18.1376 36.6666 20.6811 36.6666 23.3333V35H30V23.3333C30 22.4493 29.6488 21.6014 29.0237 20.9763C28.3985 20.3512 27.5507 20 26.6666 20C25.7826 20 24.9347 20.3512 24.3096 20.9763C23.6845 21.6014 23.3333 22.4493 23.3333 23.3333V35H16.6666V23.3333C16.6666 20.6811 17.7202 18.1376 19.5956 16.2622C21.4709 14.3869 24.0145 13.3333 26.6666 13.3333Z" stroke="white" stroke-linecap="round" stroke-linejoin="round"/>
<path d="M9.99998 15H3.33331V35H9.99998V15Z" stroke="white" stroke-linecap="round" stroke-linejoin="round"/>
<path d="M6.66665 9.99998C8.5076 9.99998 9.99998 8.5076 9.99998 6.66665C9.99998 4.8257 8.5076 3.33331 6.66665 3.33331C4.8257 3.33331 3.33331 4.8257 3.33331 6.66665C3.33331 8.5076 4.8257 9.99998 6.66665 9.99998Z" stroke="white" stroke-linecap="round" stroke-linejoin="round"/>
</svg>
